<svg width="19" height="14" viewBox="0 0 19 14" fill="none" xmlns="http://www.w3.org/2000/svg">
<path d="M5.57272 13.27C4.60072 13.27 3.71872 13.012 2.92672 12.496C2.13472 11.98 1.50472 11.23 1.03672 10.246C0.580725 9.25 0.352725 8.068 0.352725 6.7C0.352725 5.332 0.580725 4.156 1.03672 3.172C1.50472 2.176 2.13472 1.42 2.92672 0.903999C3.71872 0.387999 4.60072 0.129999 5.57272 0.129999C6.54472 0.129999 7.42672 0.387999 8.21873 0.903999C9.01073 1.42 9.63473 2.176 10.0907 3.172C10.5587 4.156 10.7927 5.332 10.7927 6.7C10.7927 8.068 10.5587 9.25 10.0907 10.246C9.63473 11.23 9.01073 11.98 8.21873 12.496C7.42672 13.012 6.54472 13.27 5.57272 13.27ZM5.57272 12.91C6.95272 12.91 7.64272 10.84 7.64272 6.7C7.64272 2.56 6.95272 0.489999 5.57272 0.489999C4.19272 0.489999 3.50272 2.56 3.50272 6.7C3.50272 10.84 4.19272 12.91 5.57272 12.91ZM12.8613 13V12.73L14.1213 12.37V2.488L12.2313 3.82L11.8713 3.37L15.1473 0.399999H17.0913V12.37L18.3513 12.73V13H12.8613Z" fill="white"/>
</svg>
